{
	"asset":{
		"version":"2.0",
		"generator":"Houdini GLTF 2.0 Exporter"
	},
	"accessors":[
		{
			"bufferView":0,
			"componentType":5123,
			"count":18024,
			"type":"SCALAR",
			"min":[0
			],
			"max":[18023
			]
		},
		{
			"bufferView":1,
			"componentType":5126,
			"count":18024,
			"type":"VEC3",
			"min":[-9.64567184,157.495041,-13.8574133
			],
			"max":[9.65086555,183.155869,8.96278
			]
		},
		{
			"bufferView":2,
			"componentType":5126,
			"count":18024,
			"type":"VEC2",
			"min":[0.0109130004,0.0111730099
			],
			"max":[0.989086986,0.983968019
			]
		},
		{
			"bufferView":3,
			"componentType":5126,
			"count":18024,
			"type":"VEC3",
			"min":[-0.999489248,-0.999975502,-0.999988616
			],
			"max":[0.999484003,0.998520792,0.99993521
			]
		},
		{
			"bufferView":4,
			"componentType":5123,
			"count":1068,
			"type":"SCALAR",
			"min":[0
			],
			"max":[1067
			]
		},
		{
			"bufferView":5,
			"componentType":5126,
			"count":1068,
			"type":"VEC3",
			"min":[-8.57241249,151.385422,-14.1211758
			],
			"max":[8.57552338,163.235931,0.16081053
			]
		},
		{
			"bufferView":6,
			"componentType":5126,
			"count":1068,
			"type":"VEC2",
			"min":[0.0474900007,0.0119960308
			],
			"max":[0.952509999,0.141667962
			]
		},
		{
			"bufferView":7,
			"componentType":5126,
			"count":1068,
			"type":"VEC3",
			"min":[-0.999209642,-0.890166759,-0.999988616
			],
			"max":[0.999203682,0.840840101,0.99994123
			]
		},
		{
			"bufferView":8,
			"componentType":5123,
			"count":1044,
			"type":"SCALAR",
			"min":[0
			],
			"max":[1043
			]
		},
		{
			"bufferView":9,
			"componentType":5126,
			"count":1044,
			"type":"VEC3",
			"min":[-5.13962269,169.978073,4.43175888
			],
			"max":[4.15414,172.256699,6.1430006
			]
		},
		{
			"bufferView":10,
			"componentType":5126,
			"count":1044,
			"type":"VEC2",
			"min":[0.0263260007,0.0465519428
			],
			"max":[0.766912997,0.958126068
			]
		},
		{
			"bufferView":11,
			"componentType":5126,
			"count":1044,
			"type":"VEC3",
			"min":[-0.562245131,-0.40826574,0.0335936323
			],
			"max":[0.363591701,0.998844862,0.998724103
			]
		}
	],
	"buffers":[
		{
			"uri":"head_speak_data.bin",
			"byteLength":684624,
			"name":"main_buffer"
		}
	],
	"bufferViews":[
		{
			"buffer":0,
			"byteLength":36048,
			"target":34963
		},
		{
			"buffer":0,
			"byteOffset":36048,
			"byteLength":216288,
			"target":34962
		},
		{
			"buffer":0,
			"byteOffset":252336,
			"byteLength":144192,
			"target":34962
		},
		{
			"buffer":0,
			"byteOffset":396528,
			"byteLength":216288,
			"target":34962
		},
		{
			"buffer":0,
			"byteOffset":612816,
			"byteLength":2136,
			"target":34963
		},
		{
			"buffer":0,
			"byteOffset":614952,
			"byteLength":12816,
			"target":34962
		},
		{
			"buffer":0,
			"byteOffset":627768,
			"byteLength":8544,
			"target":34962
		},
		{
			"buffer":0,
			"byteOffset":636312,
			"byteLength":12816,
			"target":34962
		},
		{
			"buffer":0,
			"byteOffset":649128,
			"byteLength":2088,
			"target":34963
		},
		{
			"buffer":0,
			"byteOffset":651216,
			"byteLength":12528,
			"target":34962
		},
		{
			"buffer":0,
			"byteOffset":663744,
			"byteLength":8352,
			"target":34962
		},
		{
			"buffer":0,
			"byteOffset":672096,
			"byteLength":12528,
			"target":34962
		}
	],
	"nodes":[
		{
			"name":"Head_only",
			"mesh":0
		}
	],
	"meshes":[
		{
			"primitives":[
				{
					"attributes":{
						"NORMAL":3,
						"TEXCOORD_0":2,
						"POSITION":1
					},
					"indices":0,
					"material":0
				},
				{
					"attributes":{
						"NORMAL":7,
						"TEXCOORD_0":6,
						"POSITION":5
					},
					"indices":4,
					"material":1
				},
				{
					"attributes":{
						"NORMAL":11,
						"TEXCOORD_0":10,
						"POSITION":9
					},
					"indices":8,
					"material":2
				}
			]
		}
	],
	"materials":[
		{
			"name":"Std_Skin_Head",
			"pbrMetallicRoughness":{
				"metallicFactor":0,
				"roughnessFactor":0.889999986,
				"baseColorTexture":{
					"index":0
				}
			},
			"normalTexture":{
				"index":1
			}
		},
		{
			"name":"Std_Skin_Body",
			"pbrMetallicRoughness":{
				"metallicFactor":0,
				"roughnessFactor":0.889999986,
				"baseColorTexture":{
					"index":2
				}
			},
			"normalTexture":{
				"index":3
			}
		},
		{
			"name":"Std_Eyelash",
			"pbrMetallicRoughness":{
				"metallicFactor":0,
				"roughnessFactor":0.889999986,
				"baseColorTexture":{
					"index":4
				}
			}
		}
	],
	"scenes":[
		{
			"nodes":[0
			]
		}
	],
	"textures":[
		{
			"source":0
		},
		{
			"source":1
		},
		{
			"source":2
		},
		{
			"source":3
		},
		{
			"source":4
		}
	],
	"images":[
		{
			"uri":"Std_Skin_Head_Diffuse.png",
			"mimeType":"image/png"
		},
		{
			"uri":"Std_Skin_Head_Normal.png",
			"mimeType":"image/png"
		},
		{
			"uri":"Std_Skin_Body_Diffuse.png",
			"mimeType":"image/png"
		},
		{
			"uri":"Std_Skin_Body_Normal.png",
			"mimeType":"image/png"
		},
		{
			"uri":"Std_Eyelash_Diffuse.png",
			"mimeType":"image/png"
		}
	],
	"scene":0
}
