{
	"asset":{
		"version":"2.0",
		"generator":"Houdini GLTF 2.0 Exporter"
	},
	"accessors":[
		{
			"bufferView":0,
			"componentType":5125,
			"count":677940,
			"type":"SCALAR",
			"min":[0
			],
			"max":[113009
			]
		},
		{
			"bufferView":1,
			"componentType":5126,
			"count":113010,
			"type":"VEC3",
			"min":[-116145.539,26709.1602,389074.062
			],
			"max":[120599.492,171644.656,550819.125
			]
		},
		{
			"bufferView":2,
			"componentType":5125,
			"count":168468,
			"type":"SCALAR",
			"min":[0
			],
			"max":[28079
			]
		},
		{
			"bufferView":3,
			"componentType":5126,
			"count":28080,
			"type":"VEC3",
			"min":[-113648.211,71450.9297,-2059.68628
			],
			"max":[107798.039,263108.125,508887.5
			]
		}
	],
	"buffers":[
		{
			"uri":"hand_data.bin",
			"byteLength":5078712,
			"name":"main_buffer"
		}
	],
	"bufferViews":[
		{
			"buffer":0,
			"byteLength":2711760,
			"target":34963
		},
		{
			"buffer":0,
			"byteOffset":2711760,
			"byteLength":1356120,
			"target":34962
		},
		{
			"buffer":0,
			"byteOffset":4067880,
			"byteLength":673872,
			"target":34963
		},
		{
			"buffer":0,
			"byteOffset":4741752,
			"byteLength":336960,
			"target":34962
		}
	],
	"nodes":[
		{
			"name":"geo1",
			"mesh":0
		}
	],
	"meshes":[
		{
			"primitives":[
				{
					"attributes":{
						"POSITION":1
					},
					"indices":0
				},
				{
					"attributes":{
						"POSITION":3
					},
					"indices":2
				}
			]
		}
	],
	"scenes":[
		{
			"nodes":[0
			]
		}
	],
	"scene":0
}
